<svg version="1.1" id="Layer_1" xmlns="http://www.w3.org/2000/svg" xmlns:xlink="http://www.w3.org/1999/xlink" x="0px" y="0px"
	 width="100%" viewBox="0 0 548 117" enable-background="new 0 0 548 117" xml:space="preserve">
<path fill="#25A2D1" opacity="1.000000" stroke="none" 
	d="
M302.759705,1.273496 
	C332.020905,1.000000 361.041779,1.000000 390.531342,1.000000 
	C394.426178,2.902158 396.745697,5.858566 398.984161,8.992306 
	C406.520081,19.542189 414.940125,29.380049 423.769653,38.855202 
	C425.913605,41.155937 427.484680,43.480011 427.515503,47.039005 
	C427.131683,49.285976 425.615112,50.479347 424.639160,51.999645 
	C420.334137,58.705887 420.405640,66.557991 424.943787,71.909126 
	C430.175476,78.078049 438.338196,79.963730 445.727936,76.702057 
	C447.092834,76.099640 448.278168,75.122864 450.104858,74.689682 
	C451.876373,74.524002 453.269562,75.618622 454.718231,74.721710 
	C458.395660,72.444939 460.792419,73.555099 462.215546,77.488991 
	C462.638031,78.656921 463.762939,78.437737 465.081177,78.292664 
	C466.185638,78.083725 466.914703,78.189476 467.962891,78.628510 
	C472.115997,84.756599 478.788025,87.151245 484.101990,91.187096 
	C494.387329,98.998650 505.785645,105.162323 517.111145,111.373787 
	C519.446960,112.654877 522.690796,113.490967 521.235718,117.712296 
	C478.312439,118.000000 435.624878,118.000000 392.468658,118.000000 
	C378.936981,107.753479 368.171112,95.166969 356.678802,83.320648 
	C355.836823,82.452736 355.408752,81.396706 355.305573,79.809166 
	C354.334351,75.822403 354.487793,72.146416 354.671173,68.488922 
	C354.938873,63.149971 355.962250,62.081913 361.196869,61.676342 
	C364.030487,61.456806 366.837158,61.243462 369.543091,60.276226 
	C375.974213,57.977425 379.358673,53.274906 378.942963,47.144402 
	C378.450775,39.886257 374.483032,35.044411 367.610718,33.841934 
	C362.836365,33.006546 357.965790,33.305416 353.148163,33.624462 
	C349.565399,33.861721 348.536682,36.416557 348.482727,39.582222 
	C348.388977,45.081100 348.506470,50.581120 348.409119,56.079453 
	C348.368042,58.397530 348.537750,60.762917 347.158112,63.259315 
	C343.702759,65.914940 341.569031,63.709087 338.998932,61.654686 
	C338.202637,61.240524 337.613403,61.042637 337.473083,60.611237 
	C335.193634,53.604321 330.003998,48.907425 324.522003,43.983086 
	C324.536682,41.713238 323.928497,40.071358 322.675293,38.621067 
	C315.718628,30.570375 311.413818,20.805490 305.789612,11.902332 
	C304.026154,9.110775 301.261047,5.705805 302.759705,1.273496 
z"/>
<path fill="#2BA4D3" opacity="1.000000" stroke="none" 
	d="
M465.070068,80.023697 
	C463.450531,82.429718 461.341919,82.147095 460.896973,80.094528 
	C459.725800,74.692307 456.531494,75.615952 452.934082,76.824440 
	C452.492310,76.972839 451.964630,76.865341 451.072571,76.858902 
	C449.594666,74.780830 451.072906,73.429436 452.010773,71.904976 
	C456.602600,64.441353 456.540558,58.103436 451.843811,52.027382 
	C447.204559,46.025681 440.117950,44.050053 432.154968,46.422722 
	C430.319733,46.969551 428.598053,48.437065 426.232300,47.152321 
	C423.600037,40.183224 417.668152,36.254990 413.405426,31.035917 
	C405.628937,21.514772 397.517426,12.272820 391.090546,1.335089 
	C442.425568,1.000000 493.851196,1.034669 545.276489,0.916103 
	C548.449219,0.908788 549.086914,1.697289 549.076843,4.766056 
	C548.957520,41.212902 548.928467,77.660629 549.111023,114.106949 
	C549.129211,117.737038 548.119080,118.199692 544.901001,118.086548 
	C537.254883,117.817711 529.592896,118.000000 521.468628,118.000000 
	C520.515625,115.515892 518.424072,114.727524 516.511658,113.758636 
	C500.540619,105.667198 485.830719,95.559250 471.165405,85.382271 
	C469.645691,84.327652 468.376495,83.027405 468.034271,80.732635 
	C470.917450,76.357956 474.645813,75.155594 478.907349,76.877724 
	C485.330902,79.473526 492.226227,78.057137 496.193176,73.326973 
	C500.977295,67.622513 501.620575,59.099094 497.741516,52.813000 
	C494.141296,46.978729 487.731476,44.399822 480.940613,46.053322 
	C473.809143,47.789745 472.989716,47.167824 472.589874,39.704613 
	C472.554321,39.041119 472.579742,38.372730 472.503479,37.713142 
	C472.268829,35.683929 472.024353,33.351967 469.352783,33.477489 
	C466.718933,33.601242 466.536255,35.992306 466.507751,37.990543 
	C466.346649,49.288357 466.475464,60.587666 466.427155,71.886314 
	C466.415802,74.540512 466.546783,77.224518 465.070068,80.023697 
z"/>
<path fill="#189CCF" opacity="1.000000" stroke="none" 
	d="
M65.739616,1.283069 
	C93.354225,1.000000 120.708458,1.000000 148.531342,1.000000 
	C150.495789,2.356573 151.604538,3.954194 152.414520,5.828045 
	C155.375488,12.678053 157.883835,19.721209 161.180618,26.426813 
	C162.427933,28.963804 162.319397,31.215839 159.594894,33.260498 
	C153.925171,34.078228 148.842178,32.041649 143.485336,32.338543 
	C135.263885,32.794205 134.470703,33.266102 134.449997,41.694614 
	C134.428329,50.514313 134.442200,59.334095 134.446274,68.153839 
	C134.446732,69.152283 134.406311,70.153976 134.482346,71.148369 
	C134.673477,73.648369 134.612228,76.664383 138.083801,76.627121 
	C141.165375,76.594040 141.336746,73.823311 141.523468,71.449928 
	C141.614777,70.289352 141.653778,69.122139 141.664810,67.958908 
	C141.702942,63.939796 143.571960,61.638386 147.716293,61.704350 
	C156.680923,61.847038 162.961105,57.837273 167.018768,49.469521 
	C171.236389,47.537403 172.051605,52.060139 175.019562,53.133476 
	C177.235626,57.906639 176.320831,62.625271 176.407501,67.235146 
	C176.577560,76.277763 176.476395,76.279663 185.295746,78.426315 
	C189.793564,80.697876 191.218002,85.049744 193.363266,88.632507 
	C197.724365,95.915878 202.409973,102.982124 206.908524,110.171181 
	C208.284607,112.370270 210.304276,114.487381 208.252563,117.706177 
	C178.312439,118.000000 148.624878,118.000000 118.468658,118.000000 
	C114.216721,116.186737 112.116074,113.002678 110.346664,109.314270 
	C106.978897,102.293983 103.435547,95.360527 100.510696,87.737045 
	C100.308334,82.659058 98.172661,78.835106 95.228371,75.300568 
	C91.075157,70.314751 87.806717,64.616264 83.117500,60.063202 
	C80.428482,57.452251 81.722984,54.975971 83.067375,52.373638 
	C87.569443,43.659004 86.715714,35.396114 80.985550,27.496881 
	C78.949677,24.690365 76.091286,23.044960 73.221207,21.351963 
	C71.670738,20.437374 69.750908,20.016470 68.773613,17.806746 
	C67.998474,13.676641 66.385757,10.213486 65.125824,6.637882 
	C64.500534,4.863343 63.895489,3.156723 65.739616,1.283069 
z"/>
<path fill="#21A0D1" opacity="1.000000" stroke="none" 
	d="
M356.704956,79.694305 
	C366.862854,91.205200 377.842834,101.357986 388.292053,112.027672 
	C389.835571,113.603806 391.301636,115.113007 391.920074,117.654739 
	C360.312439,118.000000 328.624878,118.000000 296.468658,118.000000 
	C292.613983,116.120506 290.033569,113.747681 288.611603,109.842598 
	C287.695251,107.326172 285.449738,105.184082 283.375702,103.317436 
	C278.641632,99.056679 276.433228,93.008141 272.222565,87.939178 
	C274.334229,76.213387 273.468872,64.710732 273.513489,53.255222 
	C273.540894,46.224979 271.958557,45.151695 265.092468,47.005886 
	C264.107208,47.271969 263.055115,47.609886 262.161041,47.163723 
	C257.546539,44.861023 252.739639,45.639000 247.550690,46.016396 
	C241.331940,43.234783 240.556717,37.000759 237.908401,32.212963 
	C234.069122,25.272104 230.762070,18.019028 227.178726,10.923212 
	C225.704498,8.003924 223.821716,5.113850 225.738647,1.301679 
	C251.354233,1.000000 276.708466,1.000000 302.531342,1.000000 
	C309.926819,13.519413 316.085724,26.504591 325.183472,37.708836 
	C326.575653,39.423386 327.305420,41.096863 325.364990,43.307678 
	C323.294891,46.078602 320.554749,45.344990 318.182129,45.416359 
	C310.625092,45.643703 301.699890,52.855160 302.344727,62.094555 
	C302.927338,70.442734 307.331329,76.421280 315.393127,78.156677 
	C322.895477,79.771645 331.759979,75.242683 334.971222,68.374847 
	C336.224792,65.693916 335.920654,62.387360 338.672699,60.100754 
	C340.955383,60.973064 342.894623,61.945728 345.155334,62.962311 
	C347.650848,63.183056 348.319366,64.877365 348.146423,66.493881 
	C347.439087,73.104797 350.049103,77.420372 356.704956,79.694305 
z"/>
<path fill="#1D9ED0" opacity="1.000000" stroke="none" 
	d="
M225.531342,1.000000 
	C228.857986,10.226205 234.000778,18.376108 238.250046,26.945047 
	C241.030518,32.552078 243.230637,38.458748 247.072891,43.907303 
	C248.141342,47.374676 245.177673,48.372253 243.657623,50.116280 
	C237.719971,56.928844 237.678497,67.513092 243.750916,73.749870 
	C247.963348,78.076294 253.003372,79.517227 258.791168,77.736755 
	C261.698364,76.842422 264.459351,75.987053 265.651276,79.919754 
	C266.507568,82.745064 264.189758,86.038597 260.792480,86.950264 
	C258.522369,87.559456 256.160400,87.302238 253.839996,87.445869 
	C252.244232,87.544647 249.990692,87.176826 249.834946,89.380569 
	C249.667999,91.742859 251.974625,92.095352 253.759125,92.337555 
	C257.785645,92.884094 261.648438,92.441185 265.408966,90.595001 
	C267.899780,89.372177 270.006470,87.226158 273.351135,87.244827 
	C280.491821,95.302994 287.541931,103.051361 292.525452,112.370903 
	C293.456268,114.111572 294.709412,115.679886 295.906921,117.663872 
	C266.979095,118.000000 237.958206,118.000000 208.468658,118.000000 
	C205.146454,110.306984 199.604233,104.209381 195.643066,97.173889 
	C192.490479,91.574547 188.530228,86.438232 185.966324,80.084579 
	C183.263489,77.881638 183.630264,75.058220 183.599808,72.452789 
	C183.475403,61.812866 183.629303,51.171104 183.502014,40.531483 
	C183.469467,37.810078 183.982941,33.921837 180.194839,33.792881 
	C175.874771,33.645821 176.790375,37.772869 176.462784,40.593884 
	C175.956909,44.950108 177.640900,49.590034 174.395844,53.819714 
	C171.583786,53.730743 170.610214,51.407631 168.500793,50.141445 
	C167.157288,49.807796 166.227341,49.167755 166.140778,48.183773 
	C165.639755,42.488449 162.647949,38.155594 158.839996,34.211224 
	C158.520355,33.880127 158.570618,33.289890 158.692764,32.438499 
	C160.445068,30.168098 159.344528,28.467638 158.559509,26.607687 
	C155.112915,18.441483 150.762131,10.616981 149.012878,1.396681 
	C174.354233,1.000000 199.708450,1.000000 225.531342,1.000000 
z"/>
<path fill="#129ACE" opacity="1.000000" stroke="none" 
	d="
M101.537895,86.520966 
	C105.977478,92.910263 108.078369,100.142319 111.780548,106.579132 
	C113.829613,110.141754 115.806442,113.745926 117.907913,117.665680 
	C80.388512,118.000000 42.776615,117.922348 5.166144,118.118324 
	C1.342348,118.138252 0.906013,117.061790 0.918263,113.677681 
	C1.049591,77.398048 1.032761,41.117668 0.937671,4.837810 
	C0.930082,1.942247 1.295953,0.865267 4.652385,0.899157 
	C24.787439,1.102459 44.925579,1.000000 65.531342,1.000000 
	C66.350555,5.003846 68.915573,8.271230 69.698296,12.149149 
	C70.015381,13.720110 71.108177,15.183450 69.646347,17.069824 
	C68.090874,19.718103 65.718018,19.240522 63.646488,19.390934 
	C49.918938,20.387659 40.007141,31.179255 41.776539,43.268185 
	C43.934429,58.011375 56.064194,66.579453 70.210083,62.619522 
	C77.529617,60.570526 82.164406,62.542332 85.463387,73.836052 
	C85.156441,74.736664 84.921158,75.233246 84.480118,76.101944 
	C83.789619,81.048767 80.999466,82.560860 76.712837,82.415840 
	C73.888313,82.320282 71.048233,82.493050 68.216423,82.512245 
	C64.104477,82.540131 62.164803,84.807365 61.665958,88.606560 
	C61.231155,91.917992 61.486435,95.264397 61.283054,98.593063 
	C61.062553,102.201973 59.322102,104.142204 55.680359,104.241455 
	C43.184780,104.581978 30.688795,104.579857 18.192890,104.243187 
	C14.109211,104.133163 12.797147,101.635986 12.685082,97.992928 
	C12.413414,89.161377 12.578569,80.328484 12.559669,71.496422 
	C12.531491,58.330341 12.493709,45.163872 12.578240,31.998026 
	C12.640922,22.235319 13.259405,21.734602 23.205914,21.542688 
	C28.945860,21.431938 34.725430,22.027563 40.421818,20.810673 
	C33.438606,20.330383 26.453787,20.353241 19.477495,20.528683 
	C13.696956,20.674053 11.651491,22.710501 11.525186,28.485933 
	C11.310208,38.315929 11.457570,48.150913 11.454059,57.983772 
	C11.449475,70.816597 11.371351,83.649986 11.490847,96.482079 
	C11.556177,103.497536 13.469549,105.438713 20.443378,105.503761 
	C33.108677,105.621895 45.775406,105.576065 58.441486,105.518120 
	C60.797108,105.507339 63.360138,105.528847 65.154808,103.979881 
	C72.944771,97.256371 81.078026,90.815804 86.422440,81.200912 
	C87.043327,80.416061 87.478889,80.071983 88.380066,79.732315 
	C90.512856,79.316116 92.042465,79.712257 93.129921,81.171043 
	C95.180817,83.922256 98.006836,85.425804 101.537895,86.520966 
z"/>
<path fill="#EBEDEE" opacity="1.000000" stroke="none" 
	d="
M465.371918,80.322449 
	C463.556274,79.275482 464.017181,77.660423 464.013489,76.225983 
	C463.977295,62.226852 464.224182,48.221493 463.861603,34.231617 
	C463.730927,29.189705 466.587860,29.992281 469.531372,29.987419 
	C472.486603,29.982538 475.746124,29.196205 475.175293,34.240364 
	C474.768341,37.836460 475.096283,41.515720 475.096283,45.799854 
	C481.459900,42.222603 487.469421,41.832371 493.488312,45.203629 
	C500.982422,49.401176 504.464783,58.624161 501.971466,67.760712 
	C499.779053,75.794556 492.438965,81.145271 484.044250,80.830444 
	C483.711212,80.817947 483.293152,80.945473 483.057068,80.790649 
	C478.417511,77.748474 473.585388,79.914116 468.408264,80.313873 
	C467.241913,80.347603 466.491974,80.297325 465.371918,80.322449 
z"/>
<path fill="#ECEDEE" opacity="1.000000" stroke="none" 
	d="
M356.994934,79.507034 
	C345.642456,80.730759 345.644531,80.730759 345.635437,69.374825 
	C345.633972,67.561745 345.604279,65.748672 345.532196,63.470913 
	C345.533813,53.676678 345.723206,44.345097 345.579712,35.018635 
	C345.525970,31.524401 346.697052,30.196539 350.166931,30.487549 
	C357.699646,31.119299 365.365051,29.289873 372.748962,32.833099 
	C379.394623,36.022083 382.017609,42.723869 381.454468,49.764011 
	C380.898346,56.716175 376.256561,61.441597 369.120697,63.024708 
	C366.698517,63.562073 364.136444,64.150986 361.723694,63.898903 
	C357.449829,63.452354 356.666962,65.395645 356.948181,69.046486 
	C357.203430,72.359802 357.000122,75.708435 356.994934,79.507034 
z"/>
<path fill="#E9ECED" opacity="1.000000" stroke="none" 
	d="
M338.862671,59.661469 
	C339.158051,77.053085 324.382446,82.983749 314.072357,80.295364 
	C304.159515,77.710579 298.639343,71.165222 300.164459,57.776211 
	C300.981964,50.599689 309.749603,43.198120 318.367432,42.869286 
	C320.335236,42.794201 322.322327,43.224060 324.695007,43.504913 
	C332.594604,46.266354 337.274078,51.390278 338.862671,59.661469 
z"/>
<path fill="#EAECED" opacity="1.000000" stroke="none" 
	d="
M425.781769,47.154434 
	C432.760590,42.671692 439.822662,41.144871 447.265106,44.964256 
	C459.639374,51.314594 461.389008,66.176498 450.845978,76.546730 
	C444.058746,80.759644 437.219086,82.273621 429.889893,78.869507 
	C416.762848,72.772552 415.524506,55.516819 425.781769,47.154434 
z"/>
<path fill="#EBEDEE" opacity="1.000000" stroke="none" 
	d="
M414.360474,48.865562 
	C414.694275,52.084457 413.848389,53.416779 410.712555,53.807835 
	C402.856598,54.787529 399.127380,59.322956 399.016144,67.251526 
	C398.983521,69.578697 398.742615,71.944618 399.065735,74.226425 
	C399.740753,78.993568 398.079865,80.565536 393.158508,80.344017 
	C389.214844,80.166496 387.616760,79.475273 387.783020,75.129524 
	C388.125946,66.164696 387.964417,57.176525 387.844360,48.200176 
	C387.801910,45.026592 387.914032,42.606651 392.202972,43.089081 
	C395.577148,43.468616 400.057068,41.861320 399.056946,48.089218 
	C399.013184,48.361668 399.223572,48.674923 399.368469,49.138386 
	C402.260345,47.073517 404.118866,43.776833 408.067749,43.138042 
	C413.596619,42.243656 414.244568,42.587860 414.360474,48.865562 
z"/>
<path fill="#E9ECED" opacity="1.000000" stroke="none" 
	d="
M520.307617,66.498932 
	C523.423096,71.186264 527.688843,72.865746 533.313110,70.689774 
	C537.764709,68.967506 539.358276,71.984398 541.592957,74.170441 
	C543.053101,75.598816 541.547180,76.450195 540.508606,77.277222 
	C533.670166,82.722343 520.727478,81.798218 513.614868,75.347610 
	C507.117615,69.455086 505.816681,59.055847 510.645264,51.609974 
	C515.732178,43.765686 526.252380,40.668888 534.864990,44.480515 
	C541.684631,47.498638 545.846985,55.317932 545.077026,62.900356 
	C544.789978,65.727951 543.110779,65.451263 541.299255,65.541656 
	C534.347046,65.888550 527.358215,64.845482 520.307617,66.498932 
z"/>
<path fill="#E7EBED" opacity="1.000000" stroke="none" 
	d="
M101.952782,86.336899 
	C96.631111,89.236832 96.360741,89.109810 90.267509,81.185852 
	C88.332802,80.031120 86.523872,79.285500 85.028793,77.523476 
	C84.629463,77.158813 84.484146,76.997192 84.206604,76.537415 
	C83.965439,75.574791 84.103065,74.949493 84.524094,74.056885 
	C84.418518,73.340843 84.169510,72.910110 83.908745,72.486633 
	C80.140182,66.366699 76.941010,62.303879 67.604279,65.274559 
	C54.179340,69.545990 40.805313,57.851768 39.392517,43.077599 
	C38.096542,29.525095 49.555355,17.169586 63.600117,17.023573 
	C65.255119,17.006367 66.912735,17.240885 68.988708,17.353191 
	C84.655891,23.234009 92.406250,35.993275 86.808578,48.983097 
	C83.898262,55.736694 85.088058,59.413242 89.527245,64.161751 
	C93.800529,68.732803 97.170654,74.146088 100.961334,79.171417 
	C102.544342,81.270027 103.611160,83.414154 101.952782,86.336899 
z"/>
<path fill="#E9ECED" opacity="1.000000" stroke="none" 
	d="
M158.439804,32.034016 
	C165.264099,35.938858 168.762909,41.409576 168.172089,49.570976 
	C165.541199,59.725964 160.010071,63.934288 148.685822,63.887749 
	C144.363922,63.869987 143.082291,65.277473 143.596924,69.277267 
	C143.828278,71.075378 143.423386,72.958008 143.676498,74.750130 
	C144.299362,79.160088 142.543976,80.230515 138.185318,80.370018 
	C133.037704,80.534775 131.808548,78.950058 131.949570,73.971970 
	C132.316437,61.020615 132.228363,48.048847 131.974670,35.092026 
	C131.898682,31.211132 133.222412,30.188082 136.806839,30.419884 
	C143.897842,30.878462 151.115295,29.547384 158.439804,32.034016 
z"/>
<path fill="#E0E9EC" opacity="1.000000" stroke="none" 
	d="
M174.108368,54.460800 
	C174.105911,47.204475 174.297760,40.408592 174.228287,33.615379 
	C174.199646,30.814669 175.152405,29.861544 177.967728,29.922586 
	C187.367920,30.126411 185.623550,29.211956 185.692398,37.517502 
	C185.806519,51.286030 185.745544,65.056007 185.817352,79.272247 
	C174.274002,81.614578 174.268311,81.603851 174.262161,70.222481 
	C174.259399,65.122421 174.220093,60.022373 174.108368,54.460800 
z"/>
<path fill="#E0E9EC" opacity="1.000000" stroke="none" 
	d="
M81.329285,20.811718 
	C80.375381,19.957594 79.676582,19.323092 78.871658,18.592226 
	C85.640335,17.370409 88.041344,19.728849 87.392693,27.149656 
	C85.335609,24.982779 83.460007,23.007061 81.329285,20.811718 
z"/>
<path fill="#E9ECED" opacity="1.000000" stroke="none" 
	d="
M273.797119,87.019348 
	C267.099884,94.783516 258.812988,95.846748 249.588989,94.101799 
	C244.242615,93.090393 246.216171,89.117256 246.246460,86.250771 
	C246.288681,82.253975 249.152435,85.175644 250.636429,85.057335 
	C253.420624,84.835381 256.224945,85.766998 259.058899,85.145004 
	C262.668945,84.352676 264.554169,82.391182 263.901520,77.994179 
	C258.382111,81.233467 252.883743,81.871292 247.217484,79.358147 
	C243.074219,77.520485 240.164093,74.436646 238.322235,70.363243 
	C233.937683,60.666553 237.393631,50.367329 247.112610,44.408875 
	C252.399231,42.722458 257.425049,41.796177 262.213928,44.996738 
	C263.281891,45.710506 263.552612,45.023083 264.405334,44.327923 
	C267.378662,41.903961 271.173553,42.788204 274.308563,43.633797 
	C276.535004,44.234306 275.427429,47.443951 275.447113,49.479210 
	C275.538635,58.961040 275.480682,68.444344 275.470520,77.927124 
	C275.467285,80.934616 275.324310,83.920242 273.797119,87.019348 
z"/>
<path fill="#EBEDEE" opacity="1.000000" stroke="none" 
	d="
M282.804565,46.277870 
	C284.591003,40.319897 288.978851,43.802666 292.067017,43.391075 
	C294.819763,43.024185 293.900299,46.003368 293.915710,47.600281 
	C294.007111,57.094788 293.715759,66.599518 294.062195,76.082222 
	C294.230835,80.698982 291.575134,80.308167 288.715302,80.157143 
	C286.016449,80.014641 282.559021,81.463654 282.713531,76.233040 
	C283.003632,66.413063 282.796021,56.578396 282.804565,46.277870 
z"/>
<path fill="#E4EAED" opacity="1.000000" stroke="none" 
	d="
M282.877930,31.519360 
	C286.011719,28.753824 289.475647,30.255901 292.750366,30.215010 
	C293.887451,30.200813 294.797119,38.092171 293.561829,38.778976 
	C290.698151,40.371174 287.442413,39.629456 284.389435,39.377331 
	C281.947815,39.175686 282.963928,36.854179 282.786163,35.387714 
	C282.648926,34.255432 282.792664,33.089104 282.877930,31.519360 
z"/>
<path fill="#E7EBED" opacity="1.000000" stroke="none" 
	d="
M191.831757,61.103317 
	C192.945053,46.752239 203.616714,40.119270 217.169312,44.978119 
	C218.243774,45.363327 218.518082,45.221237 219.438660,44.393307 
	C222.341339,41.782738 226.008972,43.319756 229.347839,43.450886 
	C230.777603,43.507042 230.571121,45.237457 230.574768,46.343071 
	C230.608276,56.486912 230.545471,66.631332 230.631622,76.774559 
	C230.653580,79.359253 229.662842,80.608994 227.119202,80.151382 
	C224.358200,79.654671 221.094101,81.684868 218.803268,78.534111 
	C218.654251,78.329170 217.658478,78.664558 217.090134,78.850838 
	C202.418167,83.659637 192.370972,76.788574 191.831757,61.103317 
z"/>
<path fill="#E4EAED" opacity="1.000000" stroke="none" 
	d="
M87.628860,80.801765 
	C88.481911,84.052605 87.324036,86.108444 85.189178,88.151306 
	C79.411224,93.680252 73.748177,99.336617 68.218056,105.113319 
	C66.221619,107.198761 64.184624,108.110443 61.262234,108.083092 
	C46.598465,107.945869 31.932682,108.041611 17.267740,108.003616 
	C10.799636,107.986855 9.004895,106.171936 8.997151,99.608276 
	C8.968247,75.111038 8.964874,50.613720 8.995171,26.116486 
	C9.002871,19.890409 10.854893,18.025734 17.031536,17.994478 
	C27.616600,17.940910 38.202133,17.979683 49.138931,17.979683 
	C45.823799,22.788586 41.840347,24.329475 36.590191,23.960857 
	C30.620316,23.541702 24.595623,23.970747 18.600224,23.817448 
	C15.869558,23.747625 14.799825,24.524696 14.811326,27.443708 
	C14.904560,51.107353 14.894356,74.771675 14.808247,98.435394 
	C14.798221,101.190979 15.571210,102.228310 18.460384,102.197815 
	C30.957632,102.065895 43.457340,102.084961 55.955307,102.171532 
	C58.524132,102.189323 59.565163,101.319778 59.468853,98.721611 
	C59.339314,95.227028 59.408207,91.723152 59.458630,88.224236 
	C59.554909,81.543495 61.179882,79.888573 67.694542,79.809952 
	C70.860405,79.771736 74.056908,79.530586 77.185570,79.873566 
	C80.773560,80.266891 82.413620,79.003677 82.642731,75.230698 
	C83.590546,75.031334 84.134033,75.202179 84.815735,75.789078 
	C85.026863,75.991135 84.997864,76.001801 85.007431,75.989716 
	C86.348206,77.214348 87.323502,78.662437 87.628860,80.801765 
z"/>
<path fill="#189CCF" opacity="1.000000" stroke="none" 
	d="
M87.972290,81.107300 
	C86.172089,79.711227 84.715103,78.332710 84.633423,76.126663 
	C88.193863,75.701622 88.009026,79.081345 89.874741,80.676826 
	C89.445396,81.032822 88.909683,81.058846 87.972290,81.107300 
z"/>
<path fill="#189CCF" opacity="1.000000" stroke="none" 
	d="
M85.396141,75.865776 
	C84.274841,77.584778 83.858139,76.066483 83.146606,75.420822 
	C83.351418,74.739937 83.715553,74.443932 84.376343,73.958061 
	C85.037140,74.425606 85.401283,75.083015 85.396141,75.865776 
z"/>
<path fill="#2BA4D3" opacity="1.000000" stroke="none" 
	d="
M479.879211,70.471863 
	C474.510040,67.785309 474.240601,63.312649 475.139252,58.710793 
	C475.839020,55.127655 478.268616,52.989544 482.147827,52.729614 
	C487.703522,52.357357 491.475250,55.508656 491.901794,61.021790 
	C492.337311,66.651009 488.761993,70.769135 483.197113,70.968163 
	C482.216034,71.003250 481.224976,70.759277 479.879211,70.471863 
z"/>
<path fill="#25A2D1" opacity="1.000000" stroke="none" 
	d="
M357.110718,42.378777 
	C364.878967,39.389881 370.260651,41.806713 370.148987,47.740490 
	C370.105621,50.045849 369.411041,52.005341 367.189209,53.054115 
	C364.220032,54.455681 361.057739,54.430096 357.942688,53.847733 
	C356.808533,53.635704 357.030823,52.241985 357.023560,51.286610 
	C357.002136,48.469555 357.032440,45.652115 357.110718,42.378777 
z"/>
<path fill="#25A2D1" opacity="1.000000" stroke="none" 
	d="
M319.872864,52.719738 
	C325.836914,54.073345 328.604919,57.826881 327.932648,63.124893 
	C327.371002,67.551125 323.210510,71.171944 318.981659,70.914780 
	C314.596497,70.648109 311.156738,66.918663 310.962128,62.219852 
	C310.732727,56.679348 313.482208,53.593296 319.872864,52.719738 
z"/>
<path fill="#2BA4D3" opacity="1.000000" stroke="none" 
	d="
M430.441498,65.086685 
	C430.202454,64.224792 430.053986,63.736557 430.032257,63.242752 
	C429.777832,57.451828 432.086426,53.757179 436.470825,52.902725 
	C441.224579,51.976292 445.172821,54.291275 446.579865,58.829952 
	C448.041656,63.545254 446.048920,68.126167 441.687622,70.076027 
	C437.319275,72.029030 433.895752,70.604210 430.441498,65.086685 
z"/>
<path fill="#40ADD6" opacity="1.000000" stroke="none" 
	d="
M533.595703,55.233253 
	C533.962891,55.973213 534.356506,56.668270 534.177063,56.881821 
	C533.389526,57.819164 521.635620,58.420708 520.747864,57.598618 
	C519.426270,56.374733 520.611206,55.524727 521.353027,54.728462 
	C524.481201,51.370773 528.573364,51.469616 533.595703,55.233253 
z"/>
<path fill="#189CCF" opacity="1.000000" stroke="none" 
	d="
M77.195778,28.827431 
	C84.628433,38.468903 83.657059,49.527153 75.081650,56.036957 
	C66.587845,62.484818 55.390984,60.874733 49.026600,52.290318 
	C43.541748,44.892227 44.492435,34.523563 51.234718,28.207495 
	C58.635342,21.274700 68.329399,21.407480 77.195778,28.827431 
z"/>
<path fill="#1D9ED0" opacity="1.000000" stroke="none" 
	d="
M152.160156,53.713829 
	C149.174255,53.922943 145.594193,55.458096 144.297516,53.264961 
	C142.502899,50.229660 143.691605,46.197441 143.774048,42.590466 
	C143.783600,42.172852 144.113190,41.645176 144.456360,41.371830 
	C146.515274,39.731800 154.297501,41.440575 155.848694,43.832947 
	C158.101227,47.306988 156.820145,51.124889 152.160156,53.713829 
z"/>
<path fill="#21A0D1" opacity="1.000000" stroke="none" 
	d="
M247.747925,63.628624 
	C247.315613,58.464027 248.462646,54.477745 253.576736,53.036644 
	C259.042297,51.496487 262.905334,53.758553 264.330963,59.005600 
	C265.719177,64.114754 263.513733,69.079308 259.181641,70.597176 
	C254.201981,72.341949 249.845398,69.831924 247.747925,63.628624 
z"/>
<path fill="#21A0D1" opacity="1.000000" stroke="none" 
	d="
M216.290527,69.517746 
	C211.771225,71.941002 207.717743,71.652206 204.683029,67.982193 
	C201.917267,64.637405 201.855545,60.568119 203.881226,56.718105 
	C205.902023,52.877377 209.446640,52.590984 213.346954,52.828766 
	C219.253525,53.188858 222.730820,64.203796 216.290527,69.517746 
z"/>
<path fill="#2BA4D3" opacity="1.000000" stroke="none" 
	d="
M65.116508,90.168991 
	C64.696091,86.653107 65.728439,85.116516 69.124924,85.373543 
	C72.200912,85.606339 75.308403,85.422752 77.874207,85.422752 
	C73.677521,89.649620 69.410736,93.947083 65.116112,98.272591 
	C65.116112,96.071510 65.116112,93.344063 65.116508,90.168991 
z"/>
</svg>